<svg version="1.1" id="Layer_1" xmlns="http://www.w3.org/2000/svg" xmlns:xlink="http://www.w3.org/1999/xlink" x="0px" y="0px"
	 width="100%" viewBox="0 0 302 300" enable-background="new 0 0 302 300" xml:space="preserve">

<path fill="#0CA7DD" opacity="1.000000" stroke="none" 
	d="
M166.002762,7.830251 
	C183.743484,7.551744 201.483353,7.138065 219.225128,7.028627 
	C241.880661,6.888879 264.537720,6.994737 287.194122,6.994739 
	C288.992584,6.994739 290.791077,6.994739 292.879700,6.994739 
	C292.879700,15.438285 292.879700,23.487143 292.879700,32.039474 
	C290.914185,32.039474 289.127991,32.039474 287.341797,32.039474 
	C251.857864,32.039474 216.352890,32.780830 180.897568,31.773455 
	C158.048630,31.124260 137.408340,48.183205 137.521240,75.253754 
	C137.816528,146.053787 137.620636,216.855865 137.620544,287.657135 
	C137.620544,289.617493 137.620544,291.577820 137.620544,293.786163 
	C129.319153,293.786163 121.539902,293.786163 113.162064,293.786163 
	C113.162064,223.378571 113.162064,152.867340 113.162064,81.746735 
	C77.532173,81.746735 42.490177,81.746735 7.139479,81.746735 
	C7.139479,73.252205 7.139479,65.365128 7.139479,57.113117 
	C42.881317,57.113117 78.474113,57.113117 113.175423,57.113117 
	C117.580132,48.576183 121.644661,40.698574 126.062454,32.277725 
	C136.614380,18.803133 149.761276,10.754275 166.002762,7.830251 
z"/>
<path fill="#FAB444" opacity="1.000000" stroke="none" 
	d="
M192.312454,85.604980 
	C191.734756,88.382568 191.050888,90.804688 191.048721,93.227409 
	C190.990540,158.202957 191.002380,223.178574 191.002380,288.154175 
	C191.002380,289.948761 191.002380,291.743378 191.002380,293.784180 
	C182.553345,293.784180 174.495392,293.784180 165.997620,293.784180 
	C165.997620,291.966278 165.997620,290.344177 165.997620,288.722076 
	C165.997620,222.746857 166.061157,156.771545 165.960098,90.796486 
	C165.928513,70.178101 182.377686,56.405148 199.835464,56.789139 
	C228.977081,57.430126 258.143036,56.964081 287.298767,56.964081 
	C289.091583,56.964081 290.884369,56.964081 292.918945,56.964081 
	C292.918945,65.293251 292.918945,73.190582 292.918945,81.606819 
	C290.875977,81.606819 289.081451,81.606827 287.286926,81.606827 
	C258.964233,81.606857 230.641525,81.621925 202.318863,81.588913 
	C198.551758,81.584526 194.944336,81.764580 192.312454,85.604980 
z"/>
<path fill="#FBB544" opacity="1.000000" stroke="none" 
	d="
M165.758575,7.476349 
	C149.761276,10.754275 136.614380,18.803133 126.152451,31.959309 
	C88.118690,32.133881 50.348202,32.083538 12.577713,32.033691 
	C10.796739,32.031338 9.015758,32.033386 7.036875,32.033386 
	C7.036875,23.585785 7.036875,15.645135 7.036875,7.481372 
	C7.556128,7.340432 8.164016,7.030852 8.771813,7.031028 
	C61.019337,7.046105 113.266853,7.085117 165.758575,7.476349 
z"/>
</svg>